<?xml version="1.0" encoding="UTF-8"?>
<svg width="139px" height="146px" viewBox="0 0 139 146" version="1.1" xmlns="http://www.w3.org/2000/svg" xmlns:xlink="http://www.w3.org/1999/xlink">
    <!-- Generator: Sketch 59 (86127) - https://sketch.com -->
    <title>编组 3</title>
    <desc>Created with Sketch.</desc>
    <defs>
        <linearGradient x1="50%" y1="81.174963%" x2="50%" y2="-27.1356997%" id="linearGradient-1">
            <stop stop-color="#FFFFFF" offset="0%"></stop>
            <stop stop-color="#94BFFA" offset="100%"></stop>
        </linearGradient>
        <linearGradient x1="50%" y1="242.345907%" x2="50%" y2="0%" id="linearGradient-2">
            <stop stop-color="#FFFFFF" offset="0%"></stop>
            <stop stop-color="#B6D5FF" offset="100%"></stop>
        </linearGradient>
        <linearGradient x1="52.2278432%" y1="83.7450981%" x2="41.3565026%" y2="42.9086925%" id="linearGradient-3">
            <stop stop-color="#F0F7FF" offset="0%"></stop>
            <stop stop-color="#9DC7FF" offset="100%"></stop>
        </linearGradient>
        <linearGradient x1="44.1715857%" y1="79.6083506%" x2="54.5933208%" y2="43.0540377%" id="linearGradient-4">
            <stop stop-color="#DBEBFF" offset="0%"></stop>
            <stop stop-color="#9CC6FF" offset="100%"></stop>
        </linearGradient>
        <linearGradient x1="50%" y1="172.810605%" x2="50%" y2="0%" id="linearGradient-5">
            <stop stop-color="#FFFFFF" offset="0%"></stop>
            <stop stop-color="#B6D5FF" offset="100%"></stop>
        </linearGradient>
        <linearGradient x1="50%" y1="118.797289%" x2="53.8241453%" y2="44.3641371%" id="linearGradient-6">
            <stop stop-color="#FFFFFF" offset="0%"></stop>
            <stop stop-color="#B6D5FF" offset="100%"></stop>
        </linearGradient>
        <linearGradient x1="41.7314609%" y1="131.659504%" x2="41.7314609%" y2="59.6593719%" id="linearGradient-7">
            <stop stop-color="#FFFFFF" offset="0%"></stop>
            <stop stop-color="#9CC6FF" offset="100%"></stop>
        </linearGradient>
    </defs>
    <g id="数据标准迭代1.0" stroke="none" stroke-width="1" fill="none" fill-rule="evenodd">
        <g id="基础标准内容" transform="translate(-1001.000000, -404.000000)">
            <g id="编组-3" transform="translate(1000.000000, 404.000000)">
                <g id="编组" transform="translate(19.310345, 0.000000)" fill="url(#linearGradient-1)">
                    <path d="M4.17746601,44.6551724 L4.17746601,53.4218297 L6.03448276,53.4218297 L6.03448276,55.5172414 L0,55.5172414 L0,53.4218297 L1.84058298,53.4218297 L1.84058298,47.1049301 L0,47.1049301 L0,45.4933371 L2.57352941,44.6551724 L4.17746601,44.6551724 Z M34.3498798,44.6551724 L34.3498798,53.4218297 L36.2068966,53.4218297 L36.2068966,55.5172414 L30.1724138,55.5172414 L30.1724138,53.4218297 L32.0129968,53.4218297 L32.0129968,47.1049301 L30.1724138,47.1049301 L30.1724138,45.4933371 L32.7459432,44.6551724 L34.3498798,44.6551724 Z M66.9360867,44.6551724 L66.9360867,53.4218297 L68.7931034,53.4218297 L68.7931034,55.5172414 L62.7586207,55.5172414 L62.7586207,53.4218297 L64.5992037,53.4218297 L64.5992037,47.1049301 L62.7586207,47.1049301 L62.7586207,45.4933371 L65.3321501,44.6551724 L66.9360867,44.6551724 Z M103.142983,44.6551724 L103.142983,53.4218297 L105,53.4218297 L105,55.5172414 L98.9655172,55.5172414 L98.9655172,53.4218297 L100.8061,53.4218297 L100.8061,47.1049301 L98.9655172,47.1049301 L98.9655172,45.4933371 L101.539047,44.6551724 L103.142983,44.6551724 Z M18.6602246,35 L18.6602246,43.7666573 L20.5172414,43.7666573 L20.5172414,45.862069 L14.4827586,45.862069 L14.4827586,43.7666573 L16.3233416,43.7666573 L16.3233416,37.4497577 L14.4827586,37.4497577 L14.4827586,35.8381647 L17.056288,35 L18.6602246,35 Z M50.039535,35 L50.039535,43.7666573 L51.8965517,43.7666573 L51.8965517,45.862069 L45.862069,45.862069 L45.862069,43.7666573 L47.7026519,43.7666573 L47.7026519,37.4497577 L45.862069,37.4497577 L45.862069,35.8381647 L48.4355984,35 L50.039535,35 Z M83.8326384,35 L83.8326384,43.7666573 L85.6896552,43.7666573 L85.6896552,45.862069 L79.6551724,45.862069 L79.6551724,43.7666573 L81.4957554,43.7666573 L81.4957554,37.4497577 L79.6551724,37.4497577 L79.6551724,35.8381647 L82.2287018,35 L83.8326384,35 Z M3.89246617,26.5517241 C4.74521211,26.5517241 5.31515965,26.722086 5.5994083,27.0494479 C5.88365695,27.3801502 6.03448276,27.8962463 6.03448276,28.6027468 L6.03448276,36.5679968 C6.03448276,37.2594653 5.88365695,37.7922636 5.5994083,38.1196255 C5.31515965,38.4486576 4.74521211,38.6206897 3.89246617,38.6206897 L2.12461361,38.6206897 C1.2878204,38.6206897 0.719323107,38.4486576 0.433624212,38.1196255 C0.133422834,37.7922636 0,37.2594653 0,36.5679968 L0,28.6027468 C0,27.8962463 0.133422834,27.3801502 0.433624212,27.0494479 C0.719323107,26.722086 1.2878204,26.5517241 2.12461361,26.5517241 L3.89246617,26.5517241 Z M34.06488,26.5517241 C34.9176259,26.5517241 35.4875734,26.722086 35.7718221,27.0494479 C36.0560707,27.3801502 36.2068966,27.8962463 36.2068966,28.6027468 L36.2068966,36.5679968 C36.2068966,37.2594653 36.0560707,37.7922636 35.7718221,38.1196255 C35.4875734,38.4486576 34.9176259,38.6206897 34.06488,38.6206897 L32.2970274,38.6206897 C31.4602342,38.6206897 30.8917369,38.4486576 30.606038,38.1196255 C30.3058366,37.7922636 30.1724138,37.2594653 30.1724138,36.5679968 L30.1724138,28.6027468 C30.1724138,27.8962463 30.3058366,27.3801502 30.606038,27.0494479 C30.8917369,26.722086 31.4602342,26.5517241 32.2970274,26.5517241 L34.06488,26.5517241 Z M66.6510869,26.5517241 C67.5038328,26.5517241 68.0737803,26.722086 68.358029,27.0494479 C68.6422776,27.3801502 68.7931034,27.8962463 68.7931034,28.6027468 L68.7931034,36.5679968 C68.7931034,37.2594653 68.6422776,37.7922636 68.358029,38.1196255 C68.0737803,38.4486576 67.5038328,38.6206897 66.6510869,38.6206897 L64.8832343,38.6206897 C64.0464411,38.6206897 63.4779438,38.4486576 63.1922449,38.1196255 C62.8920435,37.7922636 62.7586207,37.2594653 62.7586207,36.5679968 L62.7586207,28.6027468 C62.7586207,27.8962463 62.8920435,27.3801502 63.1922449,27.0494479 C63.4779438,26.722086 64.0464411,26.5517241 64.8832343,26.5517241 L66.6510869,26.5517241 Z M102.857983,26.5517241 C103.710729,26.5517241 104.280677,26.722086 104.564926,27.0494479 C104.849174,27.3801502 105,27.8962463 105,28.6027468 L105,36.5679968 C105,37.2594653 104.849174,37.7922636 104.564926,38.1196255 C104.280677,38.4486576 103.710729,38.6206897 102.857983,38.6206897 L101.090131,38.6206897 C100.253338,38.6206897 99.6848403,38.4486576 99.3991415,38.1196255 C99.0989401,37.7922636 98.9655172,37.2594653 98.9655172,36.5679968 L98.9655172,28.6027468 C98.9655172,27.8962463 99.0989401,27.3801502 99.3991415,27.0494479 C99.6848403,26.722086 100.253338,26.5517241 101.090131,26.5517241 L102.857983,26.5517241 Z M3.42838674,28.8766619 L2.60464577,28.8766619 C2.42481499,28.8766619 2.3348996,28.9818853 2.3348996,29.1889919 L2.3348996,35.9817517 C2.3348996,36.1905285 2.42481499,36.2940817 2.60464577,36.2940817 L3.42838674,36.2940817 C3.60821752,36.2940817 3.69813291,36.1905285 3.69813291,35.9817517 L3.69813291,29.1889919 C3.69813291,28.9818853 3.60821752,28.8766619 3.42838674,28.8766619 Z M33.6008005,28.8766619 L32.7770596,28.8766619 C32.5972288,28.8766619 32.5073134,28.9818853 32.5073134,29.1889919 L32.5073134,35.9817517 C32.5073134,36.1905285 32.5972288,36.2940817 32.7770596,36.2940817 L33.6008005,36.2940817 C33.7806313,36.2940817 33.8705467,36.1905285 33.8705467,35.9817517 L33.8705467,29.1889919 C33.8705467,28.9818853 33.7806313,28.8766619 33.6008005,28.8766619 Z M66.1870074,28.8766619 L65.3632665,28.8766619 C65.1834357,28.8766619 65.0935203,28.9818853 65.0935203,29.1889919 L65.0935203,35.9817517 C65.0935203,36.1905285 65.1834357,36.2940817 65.3632665,36.2940817 L66.1870074,36.2940817 C66.3668382,36.2940817 66.4567536,36.1905285 66.4567536,35.9817517 L66.4567536,29.1889919 C66.4567536,28.9818853 66.3668382,28.8766619 66.1870074,28.8766619 Z M102.393904,28.8766619 L101.570163,28.8766619 C101.390332,28.8766619 101.300417,28.9818853 101.300417,29.1889919 L101.300417,35.9817517 C101.300417,36.1905285 101.390332,36.2940817 101.570163,36.2940817 L102.393904,36.2940817 C102.573735,36.2940817 102.66365,36.1905285 102.66365,35.9817517 L102.66365,29.1889919 C102.66365,28.9818853 102.573735,28.8766619 102.393904,28.8766619 Z M18.3752248,16.8965517 C19.2279707,16.8965517 19.7979183,17.0669135 20.0821669,17.3942755 C20.3664156,17.7249778 20.5172414,18.2410739 20.5172414,18.9475744 L20.5172414,26.9128244 C20.5172414,27.6042929 20.3664156,28.1370912 20.0821669,28.4644531 C19.7979183,28.7934852 19.2279707,28.9655172 18.3752248,28.9655172 L16.6073722,28.9655172 C15.770579,28.9655172 15.2020817,28.7934852 14.9163828,28.4644531 C14.6161815,28.1370912 14.4827586,27.6042929 14.4827586,26.9128244 L14.4827586,18.9475744 C14.4827586,18.2410739 14.6161815,17.7249778 14.9163828,17.3942755 C15.2020817,17.0669135 15.770579,16.8965517 16.6073722,16.8965517 L18.3752248,16.8965517 Z M49.7545351,16.8965517 C50.6072811,16.8965517 51.1772286,17.0669135 51.4614773,17.3942755 C51.7457259,17.7249778 51.8965517,18.2410739 51.8965517,18.9475744 L51.8965517,26.9128244 C51.8965517,27.6042929 51.7457259,28.1370912 51.4614773,28.4644531 C51.1772286,28.7934852 50.6072811,28.9655172 49.7545351,28.9655172 L47.9866826,28.9655172 C47.1498894,28.9655172 46.5813921,28.7934852 46.2956932,28.4644531 C45.9954918,28.1370912 45.862069,27.6042929 45.862069,26.9128244 L45.862069,18.9475744 C45.862069,18.2410739 45.9954918,17.7249778 46.2956932,17.3942755 C46.5813921,17.0669135 47.1498894,16.8965517 47.9866826,16.8965517 L49.7545351,16.8965517 Z M83.5476386,16.8965517 C84.4003845,16.8965517 84.9703321,17.0669135 85.2545807,17.3942755 C85.5388294,17.7249778 85.6896552,18.2410739 85.6896552,18.9475744 L85.6896552,26.9128244 C85.6896552,27.6042929 85.5388294,28.1370912 85.2545807,28.4644531 C84.9703321,28.7934852 84.4003845,28.9655172 83.5476386,28.9655172 L81.779786,28.9655172 C80.9429928,28.9655172 80.3744955,28.7934852 80.0887966,28.4644531 C79.7885952,28.1370912 79.6551724,27.6042929 79.6551724,26.9128244 L79.6551724,18.9475744 C79.6551724,18.2410739 79.7885952,17.7249778 80.0887966,17.3942755 C80.3744955,17.0669135 80.9429928,16.8965517 81.779786,16.8965517 L83.5476386,16.8965517 Z M17.9111454,19.2214894 L17.0874044,19.2214894 C16.9075736,19.2214894 16.8176582,19.3267129 16.8176582,19.5338194 L16.8176582,26.3265793 C16.8176582,26.535356 16.9075736,26.6389093 17.0874044,26.6389093 L17.9111454,26.6389093 C18.0909761,26.6389093 18.1808915,26.535356 18.1808915,26.3265793 L18.1808915,19.5338194 C18.1808915,19.3267129 18.0909761,19.2214894 17.9111454,19.2214894 Z M49.2904557,19.2214894 L48.4667147,19.2214894 C48.286884,19.2214894 48.1969686,19.3267129 48.1969686,19.5338194 L48.1969686,26.3265793 C48.1969686,26.535356 48.286884,26.6389093 48.4667147,26.6389093 L49.2904557,26.6389093 C49.4702865,26.6389093 49.5602019,26.535356 49.5602019,26.3265793 L49.5602019,19.5338194 C49.5602019,19.3267129 49.4702865,19.2214894 49.2904557,19.2214894 Z M83.0835592,19.2214894 L82.2598182,19.2214894 C82.0799874,19.2214894 81.990072,19.3267129 81.990072,19.5338194 L81.990072,26.3265793 C81.990072,26.535356 82.0799874,26.6389093 82.2598182,26.6389093 L83.0835592,26.6389093 C83.2633899,26.6389093 83.3533053,26.535356 83.3533053,26.3265793 L83.3533053,19.5338194 C83.3533053,19.3267129 83.2633899,19.2214894 83.0835592,19.2214894 Z M3.34228135,9.65517241 L3.34228135,18.4228741 L4.82758621,18.4228741 L4.82758621,20.5172414 L0,20.5172414 L0,18.4228741 L1.47286975,18.4228741 L1.47286975,12.1075512 L0,12.1075512 L0,10.4929193 L2.0600833,9.65517241 L3.34228135,9.65517241 Z M33.5146951,9.65517241 L33.5146951,18.4228741 L35,18.4228741 L35,20.5172414 L30.1724138,20.5172414 L30.1724138,18.4228741 L31.6452835,18.4228741 L31.6452835,12.1075512 L30.1724138,12.1075512 L30.1724138,10.4929193 L32.2324971,9.65517241 L33.5146951,9.65517241 Z M66.100902,9.65517241 L66.100902,18.4228741 L67.5862069,18.4228741 L67.5862069,20.5172414 L62.7586207,20.5172414 L62.7586207,18.4228741 L64.2314904,18.4228741 L64.2314904,12.1075512 L62.7586207,12.1075512 L62.7586207,10.4929193 L64.818704,9.65517241 L66.100902,9.65517241 Z M102.307799,9.65517241 L102.307799,18.4228741 L103.793103,18.4228741 L103.793103,20.5172414 L98.9655172,20.5172414 L98.9655172,18.4228741 L100.438387,18.4228741 L100.438387,12.1075512 L98.9655172,12.1075512 L98.9655172,10.4929193 L101.025601,9.65517241 L102.307799,9.65517241 Z M17.82504,0 L17.82504,8.76770168 L19.3103448,8.76770168 L19.3103448,10.862069 L14.4827586,10.862069 L14.4827586,8.76770168 L15.9556284,8.76770168 L15.9556284,2.45237879 L14.4827586,2.45237879 L14.4827586,0.837746914 L16.5428419,0 L17.82504,0 Z M49.2043503,0 L49.2043503,8.76770168 L50.6896552,8.76770168 L50.6896552,10.862069 L45.862069,10.862069 L45.862069,8.76770168 L47.3349387,8.76770168 L47.3349387,2.45237879 L45.862069,2.45237879 L45.862069,0.837746914 L47.9221523,0 L49.2043503,0 Z M82.9974538,0 L82.9974538,8.76770168 L84.4827586,8.76770168 L84.4827586,10.862069 L79.6551724,10.862069 L79.6551724,8.76770168 L81.1280422,8.76770168 L81.1280422,2.45237879 L79.6551724,2.45237879 L79.6551724,0.837746914 L81.7152557,0 L82.9974538,0 Z" id="形状结合"></path>
                </g>
                <g id="packing" transform="translate(0.000000, 41.034483)" fill-rule="nonzero">
                    <polygon id="路径" fill="url(#linearGradient-2)" points="70 0.603448276 19.0072064 19.9599946 69.9997643 43.4949488 120.992558 19.9599946"></polygon>
                    <path d="M119.853078,81.2849542 L70,104.294013 L70,43.4949488 L120.992794,19.9599946 L120.992794,79.5040746 C120.992794,80.2689925 120.547751,80.9641366 119.853078,81.2849542 Z" id="路径" fill="url(#linearGradient-3)"></path>
                    <path d="M20.1464507,81.2849542 L69.9997643,104.294013 L69.9997643,43.4949488 L19.0072064,19.9599946 L19.0072064,79.5038389 C19.0072064,80.2689925 19.4520137,80.9641366 20.1464507,81.2849542 Z" id="路径" fill="url(#linearGradient-4)"></path>
                    <path d="M120.992558,19.9599946 L69.9997643,43.4949488 L88.0980267,65.9790544 C88.4676387,67.0878906 89.7193225,67.629344 90.7805428,67.1397495 L138.189655,45.2586207 C139.096949,44.8397427 139.544349,43.8056304 139.228246,42.8575566 L120.992558,19.9599946 Z" id="路径" fill="url(#linearGradient-5)"></path>
                    <path d="M19.0072064,19.9599946 L70,43.4949488 L52.3371161,66.5700094 C51.967504,67.6788456 50.7158203,68.220299 49.6545999,67.7307045 L2.24548761,45.84934 C1.3381937,45.430462 0.890793373,44.3963497 1.20689655,43.4482759 L19.0072064,19.9599946 Z" id="路径" fill="url(#linearGradient-6)"></path>
                    <polygon id="路径" fill="url(#linearGradient-7)" points="120.992558 19.9599946 70 0.603448276 69.9997643 43.4949488"></polygon>
                </g>
            </g>
        </g>
    </g>
</svg>