<?xml version="1.0" encoding="UTF-8"?>
<svg width="32px" height="32px" viewBox="0 0 32 32" version="1.1" xmlns="http://www.w3.org/2000/svg" xmlns:xlink="http://www.w3.org/1999/xlink">
    <!-- Generator: Sketch 59.1 (86144) - https://sketch.com -->
    <title>用户</title>
    <desc>Created with Sketch.</desc>
    <g id="数据标准迭代1.0" stroke="none" stroke-width="1" fill="none" fill-rule="evenodd">
        <g id="标准审核审批流程-修改" transform="translate(-655.000000, -1658.000000)">
            <g id="用户" transform="translate(655.000000, 1658.000000)">
                <rect id="矩形" fill="#F7F7F7" x="0" y="0" width="32" height="32"></rect>
                <rect id="矩形" fill="#000000" fill-rule="nonzero" opacity="0" x="4" y="4" width="24" height="24"></rect>
                <path d="M25.5039063,25.5367187 C25.5039063,25.5226562 25.4992188,25.50625 25.4992188,25.4921875 L25.4945313,25.4617187 C25.4945313,25.3890625 25.4851563,25.3164062 25.46875,25.2460937 C25.0609375,21.934375 22.8976563,19.0726562 19.7710937,17.7039062 C21.60625,16.4359375 22.69375,14.378125 22.684375,12.1867187 C22.7523437,9.821875 21.49375,7.6046875 19.3960937,6.40234375 C17.3007812,5.2 14.6992188,5.2 12.6039062,6.40234375 C10.5085937,7.60703125 9.25,9.821875 9.31796875,12.1890625 C9.30859375,14.3804687 10.3960937,16.440625 12.2359375,17.70625 C9.13984375,19.0609375 6.9859375,21.8828125 6.54765625,25.1570312 C6.51484375,25.2554687 6.4984375,25.3585937 6.49609375,25.4617187 L6.50078125,25.5367187 L6.50546875,25.5460937 C6.49375,25.8835937 6.67421875,26.2023437 6.971875,26.3757812 C7.271875,26.5492187 7.64453125,26.5492187 7.9421875,26.3757812 C8.2421875,26.2023437 8.4203125,25.8859375 8.40859375,25.5460937 L8.40390625,25.5367187 L8.425,25.5367187 C8.8328125,21.9109375 11.85625,19.0960937 15.596875,18.8546875 C15.7304688,18.8640625 15.8640625,18.86875 15.9976563,18.86875 C16.1359375,18.86875 16.2695312,18.8640625 16.403125,18.8546875 C20.14375,19.0960937 23.1671875,21.9109375 23.575,25.5367187 L23.5960938,25.5367187 L23.5960938,25.5460937 C23.584375,25.8835937 23.7648438,26.2023437 24.0625,26.3757812 C24.3625,26.5492187 24.7351563,26.5492187 25.0351562,26.3757812 C25.3351563,26.2023437 25.5132813,25.8859375 25.5015625,25.5460937 L25.5015625,25.5367187 L25.5039063,25.5367187 Z M11.228125,12.19375 C11.2960938,9.7 13.375,7.70546875 15.9390625,7.67265625 C18.503125,7.63984375 20.6335938,9.5828125 20.7671875,12.0742187 C20.9007813,14.565625 18.9882812,16.7125 16.4359375,16.9421875 C16.2929688,16.9375 16.1476563,16.9328125 16.0046875,16.9328125 C15.8617187,16.9328125 15.7117187,16.9375 15.56875,16.9421875 C13.0796875,16.684375 11.2,14.6289062 11.228125,12.19375 Z" id="形状" fill-opacity="0.742761145" fill="#909399" fill-rule="nonzero"></path>
            </g>
        </g>
    </g>
</svg>